<svg width="33" height="33" viewBox="0 0 33 33" fill="none" xmlns="http://www.w3.org/2000/svg">
<g clip-path="url(#clip0_159_1806)">
<path d="M12.0538 27.132C10.4492 25.7065 9.98083 22.7111 10.6493 20.541C11.8084 21.9092 13.4144 22.3426 15.078 22.5873C17.6461 22.9648 20.1682 22.8236 22.5538 21.6827C22.8268 21.5521 23.079 21.3784 23.3772 21.2025C23.601 21.8337 23.6593 22.471 23.5811 23.1196C23.391 24.6992 22.5822 25.9194 21.2959 26.8444C20.7815 27.2143 20.2372 27.545 19.7059 27.8939C18.0739 28.9661 17.6323 30.2233 18.2456 32.0521C18.2601 32.0966 18.2732 32.1412 18.3061 32.2499C17.4728 31.8875 16.8641 31.3597 16.4004 30.6657C15.9105 29.9333 15.6774 29.1231 15.6652 28.2465C15.6591 27.8199 15.6591 27.3895 15.6 26.9689C15.4559 25.9436 14.9607 25.4845 14.0277 25.458C13.0703 25.4309 12.3129 26.0062 12.112 26.9123C12.0967 26.9818 12.0745 27.0505 12.0522 27.1313L12.0538 27.132Z" fill="url(#paint0_linear_159_1806)"/>
<path d="M3.98438 21.2055C3.98438 21.2055 8.37164 19.1057 12.7712 19.1057L16.0883 9.01941C16.2124 8.53162 16.5751 8.20016 16.9844 8.20016C17.3938 8.20016 17.7564 8.53162 17.8806 9.01941L21.1976 19.1057C26.4082 19.1057 29.9844 21.2055 29.9844 21.2055C29.9844 21.2055 22.5323 1.25953 22.5177 1.21951C22.3038 0.629801 21.9428 0.25 21.456 0.25H12.5136C12.0268 0.25 11.6803 0.629801 11.4518 1.21951C11.4357 1.25877 3.98438 21.2055 3.98438 21.2055Z" fill="black"/>
</g>
<defs>
<linearGradient id="paint0_linear_159_1806" x1="10.3545" y1="32.2499" x2="25.6836" y2="24.7984" gradientUnits="userSpaceOnUse">
<stop stop-color="#D83333"/>
<stop offset="1" stop-color="#F041FF"/>
</linearGradient>
<clipPath id="clip0_159_1806">
<rect width="32" height="32" fill="white" transform="translate(0.984375 0.25)"/>
</clipPath>
</defs>
</svg>
