<svg width="17" height="16" viewBox="0 0 17 16" fill="none" xmlns="http://www.w3.org/2000/svg">
<mask id="mask0_159_1844" style="mask-type:alpha" maskUnits="userSpaceOnUse" x="0" y="0" width="17" height="16">
<path fill-rule="evenodd" clip-rule="evenodd" d="M0.5 15.3077V16H16.5V0H1.4702C2.4002 0 3.106 0.83754 2.9485 1.75409L0.7141 14.7541C0.6794 14.9564 0.6051 15.1434 0.5 15.3077Z" fill="#D9D9D9"/>
</mask>
<g mask="url(#mask0_159_1844)">
<mask id="mask1_159_1844" style="mask-type:luminance" maskUnits="userSpaceOnUse" x="0" y="0" width="17" height="16">
<path d="M16.5 0H0.5V16H16.5V0Z" fill="white"/>
</mask>
<g mask="url(#mask1_159_1844)">
<path d="M16.0275 6.68664L16.0056 6.63069L13.8859 1.0989C13.8428 0.990478 13.7664 0.898505 13.6678 0.836175C13.5691 0.774904 13.454 0.745394 13.338 0.751629C13.222 0.757865 13.1107 0.799545 13.0191 0.871043C12.9286 0.944593 12.8629 1.04426 12.831 1.15647L11.3998 5.53519H5.60445L4.17325 1.15647C4.14215 1.04365 4.07635 0.943483 3.98515 0.870232C3.89355 0.798734 3.78225 0.757054 3.66625 0.750818C3.55025 0.744583 3.43515 0.774093 3.33645 0.835364C3.23795 0.897946 3.16165 0.989838 3.11825 1.09809L0.994653 6.62744L0.973552 6.68339C0.668352 7.48065 0.630752 8.3555 0.866252 9.17603C1.10165 9.99656 1.59755 10.7183 2.27905 11.2324L2.28635 11.2381L2.30575 11.2519L5.53465 13.6699L7.13215 14.8789L8.10515 15.6136C8.21895 15.7 8.35795 15.7468 8.50085 15.7468C8.64375 15.7468 8.78275 15.7 8.89655 15.6136L9.86965 14.8789L11.4671 13.6699L14.7155 11.2373L14.7236 11.2308C15.4035 10.7166 15.8982 9.99558 16.1333 9.17616C16.3685 8.35673 16.3313 7.48313 16.0275 6.68664Z" fill="#E24329"/>
<path d="M16.0273 6.68681L16.0055 6.63086C14.9726 6.84286 13.9994 7.28033 13.1552 7.91204L8.5 11.432C10.0853 12.6313 11.4654 13.6733 11.4654 13.6733L14.7137 11.2407L14.7218 11.2342C15.4028 10.72 15.8982 9.99855 16.1337 9.17843C16.3691 8.35831 16.3318 7.48389 16.0273 6.68681Z" fill="#FC6D26"/>
<path d="M5.53455 13.6729L7.13195 14.8819L8.10505 15.6166C8.21885 15.703 8.35785 15.7498 8.50075 15.7498C8.64365 15.7498 8.78265 15.703 8.89645 15.6166L9.86945 14.8819L11.4669 13.6729C11.4669 13.6729 10.0851 12.6277 8.49995 11.4316C6.91465 12.6277 5.53455 13.6729 5.53455 13.6729Z" fill="#FCA326"/>
<path d="M3.8439 7.91187C3.0005 7.27886 2.0274 6.84024 0.994497 6.62744L0.973398 6.68339C0.668298 7.48065 0.630598 8.35549 0.866098 9.17602C1.1016 9.99656 1.5975 10.7183 2.2789 11.2324L2.2862 11.2381L2.3057 11.2519L5.5346 13.6699C5.5346 13.6699 6.9131 12.6279 8.5 11.4286L3.8439 7.91187Z" fill="#FC6D26"/>
</g>
</g>
</svg>
