<svg width="17" height="16" viewBox="0 0 17 16" fill="none" xmlns="http://www.w3.org/2000/svg">
<mask id="mask0_159_1862" style="mask-type:luminance" maskUnits="userSpaceOnUse" x="0" y="0" width="17" height="16">
<path d="M16.5 0H0.5V16H16.5V0Z" fill="white"/>
</mask>
<g mask="url(#mask0_159_1862)">
<path fill-rule="evenodd" clip-rule="evenodd" d="M8.5 0C4.08 0 0.5 3.57879 0.5 7.99729C0.5 11.5361 2.79 14.5251 5.97 15.5847C6.37 15.6547 6.52 15.4148 6.52 15.2049C6.52 15.0149 6.51 14.3851 6.51 13.7154C4.5 14.0852 3.98 13.2255 3.82 12.7757C3.73 12.5458 3.34 11.836 3 11.6461C2.72 11.4961 2.32 11.1262 2.99 11.1162C3.62 11.1062 4.07 11.696 4.22 11.936C4.94 13.1455 6.09 12.8057 6.55 12.5957C6.62 12.0759 6.83 11.726 7.06 11.5261C5.28 11.3262 3.42 10.6364 3.42 7.57743C3.42 6.70773 3.73 5.98797 4.24 5.42816C4.16 5.22823 3.88 4.40851 4.32 3.30888C4.32 3.30888 4.99 3.09895 6.52 4.1286C7.16 3.94866 7.84 3.85869 8.52 3.85869C9.2 3.85869 9.88 3.94866 10.52 4.1286C12.05 3.08895 12.72 3.30888 12.72 3.30888C13.16 4.40851 12.88 5.22823 12.8 5.42816C13.31 5.98797 13.62 6.69773 13.62 7.57743C13.62 10.6464 11.75 11.3262 9.97 11.5261C10.26 11.776 10.51 12.2558 10.51 13.0056C10.51 14.0752 10.5 14.9349 10.5 15.2049C10.5 15.4148 10.65 15.6647 11.05 15.5847C12.6381 15.0488 14.0182 14.0284 14.9958 12.6673C15.9735 11.3062 16.4996 9.67293 16.5 7.99729C16.5 3.57879 12.92 0 8.5 0Z" fill="black"/>
</g>
</svg>
