<svg width="17" height="16" viewBox="0 0 17 16" fill="none" xmlns="http://www.w3.org/2000/svg">
<mask id="mask0_159_1856" style="mask-type:alpha" maskUnits="userSpaceOnUse" x="0" y="0" width="17" height="16">
<path fill-rule="evenodd" clip-rule="evenodd" d="M0.5 14.7083C2.3412 13.0604 3.5 10.6655 3.5 8C3.5 5.3345 2.3412 2.93964 0.5 1.29168V0H16.5V16H0.5V14.7083Z" fill="#D9D9D9"/>
</mask>
<g mask="url(#mask0_159_1856)">
<path d="M15.5132 1.00004C15.5833 0.999104 15.6528 1.01411 15.7168 1.04401C15.7807 1.07391 15.8376 1.11798 15.8834 1.17313C15.9292 1.22827 15.9628 1.29315 15.9819 1.36322C16.001 1.43328 16.005 1.50683 15.9938 1.57869L13.9536 14.4338C13.9282 14.5911 13.8502 14.7341 13.7333 14.8376C13.6164 14.9411 13.4681 14.9986 13.3144 15H3.527C3.4118 15.0015 3.2999 14.96 3.2117 14.8831C3.1234 14.8062 3.06479 14.699 3.04639 14.5809L1.00619 1.58119C0.994994 1.50932 0.998994 1.43577 1.01809 1.36571C1.03719 1.29565 1.07079 1.23077 1.11659 1.17562C1.16239 1.12048 1.21929 1.07641 1.28319 1.04651C1.34719 1.0166 1.41669 1.0016 1.48679 1.00254L15.5132 1.00004ZM6.92239 10.2909H10.0463L10.8922 5.70409H6.1655L6.92239 10.2909Z" fill="#2684FF"/>
<path d="M1.65503 5.7041H6.16553L6.92243 10.2909H10.0463L13.735 14.8354C13.618 14.9403 13.469 14.9986 13.3144 15H3.52453C3.40943 15.0015 3.29753 14.96 3.20923 14.8831C3.12103 14.8062 3.06243 14.699 3.04393 14.5809L1.65503 5.7041Z" fill="url(#paint0_linear_159_1856)"/>
</g>
<defs>
<linearGradient id="paint0_linear_159_1856" x1="0.612129" y1="6.98861" x2="8.27443" y2="12.7502" gradientUnits="userSpaceOnUse">
<stop offset="0.18" stop-color="#0052CC"/>
<stop offset="1" stop-color="#2684FF"/>
</linearGradient>
</defs>
</svg>
