<svg width="17" height="16" viewBox="0 0 17 16" fill="none" xmlns="http://www.w3.org/2000/svg">
<mask id="mask0_159_1835" style="mask-type:alpha" maskUnits="userSpaceOnUse" x="0" y="0" width="17" height="16">
<path fill-rule="evenodd" clip-rule="evenodd" d="M3.0945 9.45197C3.3893 8.42444 3.3427 7.32898 2.9617 6.3302L2.9393 6.27288L2.9367 6.2663L0.819698 0.741067L0.814999 0.729303C0.741799 0.545259 0.6346 0.378067 0.5 0.235908V0H16.5V16H0.5V12.6479L1.3276 12.0281L1.3381 12.0197C2.1848 11.3755 2.8009 10.4749 3.0945 9.45197Z" fill="#D9D9D9"/>
</mask>
<g mask="url(#mask0_159_1835)">
<mask id="mask1_159_1835" style="mask-type:luminance" maskUnits="userSpaceOnUse" x="0" y="0" width="17" height="16">
<path d="M16.5 0H0.5V16H16.5V0Z" fill="white"/>
</mask>
<g mask="url(#mask1_159_1835)">
<path d="M16.5 2.99657V12.5L12.5 16L6.5 14V15.9806L2.5 11.5L12.5 12.5V3.5L16.5 2.99657ZM12.5 3.5L7.5 0V2.28686L2 4L0.5 5.56457V10.5L2.5 11.5V5.56457L12.5 3.5Z" fill="#0078D4"/>
</g>
</g>
</svg>
