<svg width="17" height="17" viewBox="0 0 17 17" fill="none" xmlns="http://www.w3.org/2000/svg">
<path fill-rule="evenodd" clip-rule="evenodd" d="M10.5 5.2998V6.7998H6.5V5.2998C6.5 4.19523 7.39543 3.2998 8.5 3.2998C9.60457 3.2998 10.5 4.19523 10.5 5.2998ZM5 6.7998V5.2998C5 3.3668 6.567 1.7998 8.5 1.7998C10.433 1.7998 12 3.3668 12 5.2998V6.7998H13H14.5V8.2998V13.2998C14.5 14.6805 13.3807 15.7998 12 15.7998H5C3.61929 15.7998 2.5 14.6805 2.5 13.2998V8.2998V6.7998H4H5ZM12 8.2998H10.5H6.5H5H4V13.2998C4 13.8521 4.44772 14.2998 5 14.2998H12C12.5523 14.2998 13 13.8521 13 13.2998V8.2998H12Z" fill="black"/>
</svg>
