<svg width="16" height="17" viewBox="0 0 16 17" fill="none" xmlns="http://www.w3.org/2000/svg">
<path d="M14.4866 12.6719L9.15329 3.33853C9.037 3.13333 8.86836 2.96265 8.66457 2.84391C8.46078 2.72516 8.22915 2.6626 7.99329 2.6626C7.75743 2.6626 7.52579 2.72516 7.322 2.84391C7.11822 2.96265 6.94958 3.13333 6.83329 3.33853L1.49995 12.6719C1.38241 12.8754 1.32077 13.1065 1.32129 13.3415C1.32181 13.5766 1.38447 13.8074 1.50292 14.0104C1.62136 14.2135 1.79138 14.3816 1.99575 14.4977C2.20011 14.6139 2.43156 14.674 2.66662 14.6719H13.3333C13.5672 14.6716 13.797 14.6098 13.9995 14.4927C14.202 14.3756 14.3701 14.2073 14.487 14.0046C14.6038 13.802 14.6653 13.5721 14.6653 13.3382C14.6652 13.1043 14.6036 12.8745 14.4866 12.6719Z" stroke="black" stroke-width="1.33333" stroke-linecap="round" stroke-linejoin="round"/>
<path d="M8 6.67188V9.33854" stroke="black" stroke-width="1.33333" stroke-linecap="round" stroke-linejoin="round"/>
<path d="M8 12.0051H8.00667" stroke="black" stroke-width="1.33333" stroke-linecap="round" stroke-linejoin="round"/>
</svg>
