<svg width="33" height="33" viewBox="0 0 33 33" fill="none" xmlns="http://www.w3.org/2000/svg">
<g clip-path="url(#clip0_159_1948)">
<path d="M18.5929 27.4165H30.4886C30.8664 27.4165 31.2376 27.3181 31.5648 27.1309C31.892 26.9435 32.1638 26.6741 32.3526 26.3499C32.5414 26.0255 32.6408 25.6575 32.6406 25.2831C32.6404 24.9087 32.5408 24.5409 32.3516 24.2167L24.3628 10.5024C24.174 10.1782 23.9024 9.90885 23.5752 9.72163C23.248 9.53443 22.877 9.43583 22.4992 9.43583C22.1214 9.43583 21.7504 9.53443 21.4232 9.72163C21.096 9.90885 20.8244 10.1782 20.6356 10.5024L18.5929 14.0114L14.5991 7.14967C14.4101 6.82545 14.1383 6.55619 13.8111 6.36899C13.4839 6.18181 13.1127 6.08325 12.7349 6.08325C12.3571 6.08325 11.9859 6.18181 11.6587 6.36899C11.3314 6.55619 11.0597 6.82545 10.8707 7.14967L0.929567 24.2167C0.740445 24.5409 0.64079 24.9087 0.640625 25.2831C0.640461 25.6575 0.739793 26.0255 0.928631 26.3499C1.11747 26.6741 1.38915 26.9435 1.71636 27.1309C2.04356 27.3181 2.41475 27.4165 2.79258 27.4165H10.2597C13.2183 27.4165 15.4002 26.1285 16.9015 23.6157L20.5464 17.3595L22.4986 14.0114L28.3578 24.0685H20.5464L18.5929 27.4165ZM10.138 24.0649L4.92689 24.0639L12.7384 10.6552L16.636 17.3595L14.0264 21.8405C13.0293 23.4709 11.8967 24.0649 10.138 24.0649Z" fill="#00DC82"/>
</g>
<defs>
<clipPath id="clip0_159_1948">
<rect width="32" height="32" fill="white" transform="translate(0.640625 0.75)"/>
</clipPath>
</defs>
</svg>
