<svg width="17" height="17" viewBox="0 0 17 17" fill="none" xmlns="http://www.w3.org/2000/svg">
<g clip-path="url(#clip0_159_1874)">
<path fill-rule="evenodd" clip-rule="evenodd" d="M4.5218 5.20926C6.61631 2.77692 10.3839 2.77692 12.4784 5.20926L15.2604 8.43993L14.1665 9.71025L15.1935 10.8163L16.8185 8.92932V7.95054L13.6151 4.23048C10.9221 1.10318 6.07809 1.10319 3.38515 4.23048L0.181763 7.95054V8.92932L3.38515 12.6493C5.23426 14.7967 8.09755 15.4696 10.5823 14.668L9.41836 13.4146C7.66773 13.7231 5.78871 13.1418 4.5218 11.6706L1.73984 8.43993L4.5218 5.20926ZM8.50006 6.43994C7.39549 6.43994 6.50006 7.33537 6.50006 8.43994C6.50006 9.54451 7.39549 10.4399 8.50006 10.4399C9.60463 10.4399 10.5001 9.54451 10.5001 8.43994C10.5001 7.33537 9.60463 6.43994 8.50006 6.43994ZM5.00006 8.43994C5.00006 6.50694 6.56706 4.93994 8.50006 4.93994C10.4331 4.93994 12.0001 6.50694 12.0001 8.43994C12.0001 9.07482 11.8311 9.67022 11.5355 10.1836L14.5497 13.4296L15.06 13.9792L13.9608 14.9998L13.4505 14.4502L10.5224 11.2969C9.95126 11.7019 9.25346 11.9399 8.50006 11.9399C6.56706 11.9399 5.00006 10.3729 5.00006 8.43994Z" fill="black"/>
</g>
<defs>
<clipPath id="clip0_159_1874">
<rect width="16" height="16" fill="white" transform="translate(0.5 0.439941)"/>
</clipPath>
</defs>
</svg>
