<svg width="33" height="33" viewBox="0 0 33 33" fill="none" xmlns="http://www.w3.org/2000/svg">
<g clip-path="url(#clip0_159_1929)">
<path d="M16.4501 0.250262C15.1306 0.256326 13.8705 0.367631 12.7618 0.56168C9.49552 1.13241 8.9025 2.327 8.9025 4.53004V7.43958H16.621V8.40942H8.9025H6.00581C3.7626 8.40942 1.79837 9.743 1.18399 12.2799C0.475306 15.1878 0.443872 17.0024 1.18399 20.0387C1.73265 22.2988 3.04293 23.9092 5.28615 23.9092H7.93995V20.4212C7.93995 17.9015 10.1442 15.6788 12.7618 15.6788H20.4713C22.6174 15.6788 24.3306 13.9311 24.3306 11.7994V4.53004C24.3306 2.46112 22.5658 0.906974 20.4713 0.56168C19.1454 0.343374 17.7696 0.244198 16.4501 0.250262ZM12.276 2.59034C13.0732 2.59034 13.7243 3.24484 13.7243 4.04956C13.7243 4.85144 13.0732 5.49988 12.276 5.49988C11.4758 5.49988 10.8276 4.85144 10.8276 4.04956C10.8276 3.24484 11.4758 2.59034 12.276 2.59034Z" fill="url(#paint0_linear_159_1929)"/>
<path d="M25.293 8.40942V11.7994C25.293 14.4277 23.04 16.6398 20.4711 16.6398H12.7616C10.6498 16.6398 8.90234 18.4274 8.90234 20.5192V27.7886C8.90234 29.8574 10.7213 31.0744 12.7616 31.668C15.2048 32.3784 17.5478 32.507 20.4711 31.668C22.4142 31.1114 24.3304 29.9916 24.3304 27.7886V24.879H16.6209V23.9092H24.3304H28.1896C30.4328 23.9092 31.2688 22.3616 32.0488 20.0387C32.8548 17.6473 32.8204 15.3476 32.0488 12.2799C31.4944 10.0712 30.4356 8.40942 28.1896 8.40942H25.293ZM20.9568 26.8186C21.757 26.8186 22.4052 27.4672 22.4052 28.269C22.4052 29.0738 21.757 29.7282 20.9568 29.7282C20.1596 29.7282 19.5086 29.0738 19.5086 28.269C19.5086 27.4672 20.1596 26.8186 20.9568 26.8186Z" fill="url(#paint1_linear_159_1929)"/>
</g>
<defs>
<linearGradient id="paint0_linear_159_1929" x1="0.640625" y1="0.25" x2="18.2739" y2="15.442" gradientUnits="userSpaceOnUse">
<stop stop-color="#5A9FD4"/>
<stop offset="1" stop-color="#306998"/>
</linearGradient>
<linearGradient id="paint1_linear_159_1929" x1="20.7714" y1="28.0244" x2="14.4788" y2="19.1091" gradientUnits="userSpaceOnUse">
<stop stop-color="#FFD43B"/>
<stop offset="1" stop-color="#FFE873"/>
</linearGradient>
<clipPath id="clip0_159_1929">
<rect width="32" height="32" fill="white" transform="translate(0.640625 0.25)"/>
</clipPath>
</defs>
</svg>
