<svg width="33" height="33" viewBox="0 0 33 33" fill="none" xmlns="http://www.w3.org/2000/svg">
<g clip-path="url(#clip0_159_1886)">
<path fill-rule="evenodd" clip-rule="evenodd" d="M9.98438 4.62552C10.387 4.3931 10.9738 4.32148 11.8107 4.57094C12.6503 4.82122 13.6472 5.37134 14.7369 6.22884C15.0071 6.44144 15.2804 6.67092 15.5558 6.9165C14.7087 7.8188 13.8692 8.83704 13.0594 9.95173C11.6892 10.0956 10.3877 10.3136 9.1827 10.5961C9.10772 10.2348 9.04566 9.88331 8.99662 9.543C8.79888 8.17051 8.82088 7.03216 9.02396 6.17986C9.22636 5.33038 9.58179 4.85796 9.98438 4.62552ZM15.9737 4.6571C16.3089 4.92084 16.6462 5.20597 16.9844 5.51122C17.3225 5.20597 17.6598 4.92084 17.995 4.6571C19.2028 3.70672 20.424 3.00086 21.5868 2.65429C22.7522 2.30688 23.952 2.29748 24.9844 2.89348C26.0166 3.48948 26.6084 4.53327 26.8904 5.71633C27.1716 6.89654 27.1708 8.30704 26.9516 9.82822C26.8908 10.2504 26.8126 10.6851 26.7174 11.1306C27.1508 11.2708 27.5664 11.4204 27.9624 11.5788C29.3894 12.1495 30.6112 12.8542 31.4928 13.6879C32.3764 14.5235 32.9844 15.5579 32.9844 16.7499C32.9844 17.9419 32.3764 18.9763 31.4928 19.8119C30.6112 20.6455 29.3894 21.3503 27.9624 21.9211C27.5664 22.0795 27.1508 22.2291 26.7174 22.3693C26.8126 22.8147 26.8908 23.2495 26.9518 23.6715C27.1708 25.1927 27.1716 26.6033 26.8904 27.7835C26.6084 28.9665 26.0166 30.0103 24.9844 30.6063C23.9522 31.2023 22.7522 31.1929 21.5868 30.8455C20.4241 30.4989 19.2028 29.7931 17.9951 28.8427C17.6599 28.5789 17.3225 28.2937 16.9844 27.9885C16.6462 28.2937 16.3088 28.5789 15.9737 28.8427C14.7659 29.7931 13.5447 30.4989 12.382 30.8455C11.2165 31.1929 10.0166 31.2023 8.98433 30.6063C7.95203 30.0103 7.36025 28.9665 7.07837 27.7835C6.79717 26.6033 6.79785 25.1927 7.01701 23.6715C7.07784 23.2495 7.1561 22.8147 7.2514 22.3693C6.81796 22.2289 6.40237 22.0795 6.00637 21.9211C4.57941 21.3503 3.35753 20.6455 2.47604 19.8119C1.59243 18.9763 0.984375 17.9419 0.984375 16.7499C0.984375 15.5579 1.59243 14.5235 2.47604 13.6879C3.35753 12.8542 4.57941 12.1495 6.00637 11.5788C6.40237 11.4204 6.81797 11.2708 7.25141 11.1306C7.15611 10.6851 7.07788 10.2504 7.01706 9.82822C6.79789 8.30704 6.79721 6.89652 7.07841 5.71631C7.36029 4.53327 7.95208 3.48948 8.98438 2.89348C10.0167 2.29748 11.2165 2.30687 12.382 2.65429C13.5447 3.00086 14.7659 3.7067 15.9737 4.6571ZM15.7193 9.77038C16.1391 9.25376 16.562 8.76842 16.9844 8.317C17.4067 8.76842 17.8296 9.25376 18.2494 9.77038C17.8318 9.7568 17.4099 9.74988 16.9844 9.74988C16.5589 9.74988 16.137 9.75678 15.7193 9.77038ZM18.4129 6.9165C19.26 7.81882 20.0996 8.83704 20.9093 9.95173C22.2794 10.0956 23.581 10.3136 24.786 10.5961C24.861 10.2348 24.923 9.88331 24.9722 9.54303C25.1698 8.17051 25.1478 7.03216 24.9448 6.17986C24.7424 5.33038 24.387 4.85796 23.9844 4.62552C23.5818 4.3931 22.995 4.32148 22.158 4.57094C21.3184 4.82124 20.3216 5.37134 19.2318 6.22884C18.9616 6.44144 18.6883 6.67092 18.4129 6.9165ZM16.9844 11.7499C17.953 11.7499 18.8971 11.7876 19.8081 11.859C20.3255 12.6122 20.8302 13.411 21.3146 14.2499C21.7988 15.0888 22.2382 15.9252 22.6318 16.7498C22.2382 17.5745 21.7988 18.411 21.3144 19.2499C20.8301 20.0888 20.3254 20.8875 19.8081 21.6407C18.8971 21.7123 17.953 21.7499 16.9844 21.7499C16.0157 21.7499 15.0716 21.7123 14.1606 21.6407C13.6433 20.8875 13.1386 20.0888 12.6543 19.2499C12.1699 18.411 11.7305 17.5745 11.3369 16.7498C11.7305 15.9252 12.1699 15.0888 12.6542 14.2499C13.1385 13.411 13.6432 12.6122 14.1606 11.859C15.0716 11.7876 16.0157 11.7499 16.9844 11.7499ZM23.0466 13.2499C23.2594 13.6183 23.4642 13.9872 23.6614 14.3556C23.8988 13.7338 24.1076 13.1249 24.2874 12.5334C23.6854 12.3934 23.0536 12.2698 22.3964 12.1646C22.617 12.5195 22.8338 12.8814 23.0466 13.2499ZM23.0466 20.2499C23.2592 19.8814 23.4642 19.5125 23.6614 19.1441C23.8988 19.7659 24.1078 20.3748 24.2874 20.9663C23.6854 21.1063 23.0536 21.2299 22.3962 21.3351C22.6168 20.9803 22.8338 20.6184 23.0466 20.2499ZM24.8342 16.7498C25.3946 18.0084 25.8568 19.2446 26.2146 20.4294C26.565 20.3137 26.9004 20.1917 27.2196 20.064C28.5072 19.549 29.482 18.9608 30.1186 18.3588C30.753 17.7588 30.9844 17.2147 30.9844 16.7499C30.9844 16.285 30.753 15.741 30.1186 15.141C29.482 14.5389 28.5072 13.9507 27.2196 13.4357C26.9004 13.308 26.565 13.186 26.2146 13.0703C25.8568 14.2551 25.3946 15.4913 24.8342 16.7498ZM20.9093 23.5481C22.2794 23.4041 23.581 23.1861 24.786 22.9037C24.861 23.2651 24.9232 23.6165 24.9722 23.9567C25.17 25.3293 25.1478 26.4677 24.9448 27.3199C24.7424 28.1695 24.387 28.6419 23.9844 28.8743C23.5818 29.1067 22.995 29.1783 22.158 28.9289C21.3184 28.6785 20.3216 28.1285 19.2318 27.2709C18.9616 27.0583 18.6883 26.8289 18.4129 26.5833C19.26 25.6809 20.0995 24.6627 20.9093 23.5481ZM18.2494 23.7295C17.8296 24.2461 17.4067 24.7313 16.9844 25.1827C16.562 24.7313 16.1391 24.2461 15.7194 23.7293C16.137 23.7429 16.5589 23.7499 16.9844 23.7499C17.4098 23.7499 17.8317 23.7429 18.2494 23.7295ZM10.9222 20.2499C11.1349 20.6184 11.3519 20.9803 11.5725 21.3351C10.9152 21.2299 10.2834 21.1063 9.68126 20.9663C9.86104 20.3748 10.0699 19.7659 10.3074 19.144C10.5045 19.5125 10.7095 19.8814 10.9222 20.2499ZM13.0595 23.5481C11.6893 23.4041 10.3876 23.1861 9.18266 22.9037C9.10768 23.2651 9.04562 23.6165 8.99658 23.9567C8.79884 25.3293 8.82084 26.4677 9.02392 27.3199C9.22632 28.1695 9.58175 28.6419 9.98433 28.8743C10.3869 29.1067 10.9738 29.1783 11.8106 28.9289C12.6503 28.6785 13.6471 28.1285 14.7369 27.2709C15.0071 27.0583 15.2804 26.8289 15.5558 26.5833C14.7087 25.6809 13.8692 24.6627 13.0595 23.5481ZM9.13451 16.7498C8.57405 18.0084 8.112 19.2446 7.75416 20.4294C7.40376 20.3137 7.06838 20.1917 6.74916 20.064C5.46166 19.549 4.48684 18.9608 3.85026 18.3588C3.2158 17.7588 2.98438 17.2147 2.98438 16.7499C2.98438 16.285 3.2158 15.741 3.85026 15.141C4.48684 14.5389 5.46166 13.9507 6.74916 13.4357C7.06838 13.308 7.40378 13.186 7.75418 13.0703C8.11204 14.2551 8.57405 15.4913 9.13451 16.7498ZM10.3074 14.3556C10.0699 13.7338 9.86108 13.1249 9.6813 12.5334C10.2834 12.3934 10.9152 12.2698 11.5724 12.1646C11.3518 12.5195 11.1349 12.8814 10.9222 13.2499C10.7094 13.6183 10.5045 13.9872 10.3074 14.3556ZM19.4844 16.7499C19.4844 18.1306 18.3651 19.2499 16.9844 19.2499C15.6037 19.2499 14.4844 18.1306 14.4844 16.7499C14.4844 15.3692 15.6037 14.2499 16.9844 14.2499C18.3651 14.2499 19.4844 15.3692 19.4844 16.7499Z" fill="#149ECA"/>
</g>
<defs>
<clipPath id="clip0_159_1886">
<rect width="32" height="32" fill="white" transform="translate(0.984375 0.75)"/>
</clipPath>
</defs>
</svg>
