<svg width="203" height="202" viewBox="0 0 203 202" fill="none" xmlns="http://www.w3.org/2000/svg">
<path d="M173.451 100.8C173.451 140.541 141.235 172.758 101.493 172.758C61.7522 172.758 29.5356 140.541 29.5356 100.8C29.5356 61.0586 61.7522 28.842 101.493 28.842C141.235 28.842 173.451 61.0586 173.451 100.8ZM55.9777 100.8C55.9777 125.937 76.3558 146.316 101.493 146.316C126.631 146.316 147.009 125.937 147.009 100.8C147.009 75.6622 126.631 55.2841 101.493 55.2841C76.3558 55.2841 55.9777 75.6622 55.9777 100.8Z" fill="#E4E4E4"/>
<path d="M101.909 17.9341C115.158 17.9865 128.202 21.2147 139.946 27.3481C151.69 33.4815 161.793 42.3412 169.407 53.1845C177.02 64.0278 181.923 76.5385 183.705 89.6676C185.486 102.797 184.093 116.162 179.643 128.641C175.194 141.121 167.817 152.352 158.131 161.393C148.446 170.434 136.734 177.02 123.977 180.601C111.221 184.181 97.7917 184.651 84.8163 181.971C71.8408 179.29 59.6971 173.538 49.4034 165.196L73.0365 136.033C78.6679 140.597 85.3113 143.744 92.4098 145.21C99.5082 146.676 106.855 146.419 113.833 144.46C120.812 142.502 127.219 138.898 132.518 133.953C137.817 129.007 141.853 122.862 144.287 116.035C146.721 109.208 147.483 101.896 146.508 94.7138C145.534 87.5313 142.852 80.6871 138.687 74.755C134.521 68.823 128.995 63.9761 122.57 60.6207C116.145 57.2653 109.009 55.4993 101.761 55.4706L101.909 17.9341Z" fill="#0362F4"/>
<path d="M201.837 101.275C201.745 124.548 193.575 147.067 178.723 164.985C163.871 182.903 143.259 195.109 120.407 199.516L110.1 146.08C120.572 144.06 130.018 138.467 136.824 130.256C143.63 122.045 147.374 111.725 147.416 101.06L201.837 101.275Z" fill="#42307D"/>
</svg>
