<svg width="33" height="33" viewBox="0 0 33 33" fill="none" xmlns="http://www.w3.org/2000/svg">
<g clip-path="url(#clip0_159_1966)">
<path d="M28.2354 4.48052C25.2796 0.222905 19.3948 -1.02455 15.1643 1.66019L7.70667 6.43308C5.67277 7.70764 4.26259 9.79578 3.85581 12.1551C3.50327 14.1348 3.80159 16.1687 4.75073 17.9314C4.09989 18.9076 3.66599 19.9924 3.47615 21.1314C3.04227 23.545 3.61175 26.0398 5.02193 28.0194C8.00497 32.2772 13.8626 33.5246 18.0931 30.8398L25.5508 26.094C27.5846 24.8194 28.9948 22.7314 29.4016 20.372C29.754 18.3924 29.4558 16.3585 28.5066 14.5958C29.1574 13.6195 29.5914 12.5348 29.7812 11.3958C30.2422 8.9551 29.6728 6.46018 28.2354 4.48052Z" fill="#FF3E00"/>
<path d="M14.4322 28.4263C12.0187 29.0501 9.49663 28.1008 8.08647 26.067C7.21867 24.8738 6.89325 23.3822 7.13731 21.9179C7.19155 21.6739 7.24579 21.4568 7.30003 21.2128L7.43563 20.7788L7.81529 21.05C8.71019 21.7008 9.68647 22.1891 10.7441 22.5145L11.0153 22.5958L10.9882 22.8671C10.961 23.2467 11.0695 23.6535 11.2865 23.9788C11.7204 24.6026 12.4797 24.9009 13.2119 24.7111C13.3746 24.6569 13.5373 24.6026 13.6729 24.5212L21.1034 19.7755C21.483 19.5314 21.7272 19.1789 21.8084 18.745C21.8898 18.3111 21.7814 17.85 21.5372 17.4975C21.1034 16.8738 20.3441 16.6026 19.6119 16.7924C19.4492 16.8467 19.2865 16.9009 19.1509 16.9823L16.3034 18.7992C15.8424 19.0975 15.3272 19.3145 14.7848 19.4501C12.3712 20.0738 9.84919 19.1246 8.43901 17.0907C7.59833 15.8975 7.24579 14.406 7.51697 12.9416C7.76105 11.5314 8.62885 10.2568 9.84919 9.49751L17.3068 4.75175C17.7678 4.45345 18.2831 4.23649 18.8254 4.07377C21.239 3.45005 23.761 4.39921 25.1712 6.43311C26.039 7.62633 26.3644 9.11785 26.1204 10.5823C26.0662 10.8263 26.0118 11.0433 25.9306 11.2873L25.795 11.7212L25.4152 11.45C24.5204 10.7992 23.544 10.3111 22.4864 9.98565L22.2152 9.90429L22.2424 9.63311C22.2694 9.25343 22.161 8.84667 21.944 8.52123C21.5102 7.89751 20.7508 7.62633 20.0187 7.81615C19.856 7.87039 19.6933 7.92463 19.5577 8.00599L12.1271 12.7517C11.7475 12.9958 11.5034 13.3483 11.4221 13.7822C11.3407 14.2161 11.4492 14.6772 11.6932 15.0297C12.1271 15.6535 12.8865 15.9246 13.6187 15.7348C13.7814 15.6805 13.9441 15.6263 14.0797 15.545L16.9271 13.728C17.3882 13.4297 17.9034 13.2128 18.4458 13.05C20.8594 12.4263 23.3814 13.3755 24.7916 15.4094C25.6594 16.6026 25.9848 18.0941 25.7406 19.5585C25.4966 20.9686 24.6288 22.2432 23.4084 23.0026L15.9509 27.7484C15.4898 28.0466 14.9746 28.2637 14.4322 28.4263Z" fill="white"/>
</g>
<defs>
<clipPath id="clip0_159_1966">
<rect width="32" height="32" fill="white" transform="translate(0.640625 0.25)"/>
</clipPath>
</defs>
</svg>
