<svg width="17" height="17" viewBox="0 0 17 17" fill="none" xmlns="http://www.w3.org/2000/svg">
<g clip-path="url(#clip0_159_1870)">
<path fill-rule="evenodd" clip-rule="evenodd" d="M15 3.21997H2V5.71997H3.5V6.71997H2V13.22C2 13.7723 2.44772 14.22 3 14.22H5.5V13.22H6.5V14.22H14C14.5523 14.22 15 13.7723 15 13.22V6.71997H14.5V5.71997H15V3.21997ZM2 1.71997H0.5V3.21997V13.22C0.5 14.6007 1.61929 15.72 3 15.72H14C15.3807 15.72 16.5 14.6007 16.5 13.22V3.21997V1.71997H15H2ZM5.5 9.71997V8.21997H6.5V9.71997H5.5ZM5.5 12.22V10.72H6.5V12.22H5.5ZM7 5.71997V6.71997H8.5V5.71997H7ZM4.5 5.71997V6.71997H6V5.71997H4.5ZM9.5 5.71997V6.71997H11V5.71997H9.5ZM12 5.71997V6.71997H13.5V5.71997H12Z" fill="black"/>
</g>
<defs>
<clipPath id="clip0_159_1870">
<rect width="16" height="16" fill="white" transform="translate(0.5 0.719971)"/>
</clipPath>
</defs>
</svg>
